<?xml version="1.0" encoding="UTF-8"?>
<svg id="Optimized_Logo" data-name="Optimized Logo" xmlns="http://www.w3.org/2000/svg" viewBox="0 0 1024 1024">
  <defs>
    <style>
      .cls-1 {
        fill: #fff;
      }

      .cls-2 {
        fill: #cb5627;
      }
    </style>
  </defs>
  <path id="Saw_Blades" data-name="Saw Blades" class="cls-1" d="m219.21,410.65c15.12-43.79,40.08-83.92,73.8-117.65,58.49-58.5,136.27-90.71,218.99-90.71s160.5,32.21,218.99,90.71c33.72,33.72,58.69,73.86,73.8,117.65h113.33c-21.7-34.74-65.72-41.94-89.8-43.15-2.01-4.41-4.11-8.77-6.3-13.07,15.71-40.49,73.93-20.72,73.93-20.72-26.42-54.7-86.9-49.38-115.86-43.14-3.06-3.69-6.21-7.32-9.42-10.9,4.61-43.29,66.06-39.26,66.06-39.26-39.66-45.98-96.68-25.22-123.05-11.7-3.93-2.8-7.92-5.51-11.97-8.15-6.68-42.95,53.66-54.94,53.66-54.94-50.19-34.14-99.88.64-121.87,20.53-4.54-1.7-9.11-3.29-13.7-4.79-17.52-39.74,37.63-66.93,37.63-66.93-57.36-20-96.37,26.54-112.44,51.42-4.78-.45-9.57-.8-14.38-1.06-27.34-33.87,18.96-74.46,18.96-74.46-60.56-4.47-86.19,50.53-95.29,78.74-4.77.8-9.52,1.69-14.25,2.69-35.06-25.65-.88-76.78-.88-76.78-59.64,11.35-70.17,71.09-71.66,100.7-4.41,2.01-8.77,4.11-13.07,6.3-40.49-15.71-20.72-73.93-20.72-73.93-54.7,26.41-49.38,86.9-43.14,115.86-3.69,3.06-7.32,6.21-10.9,9.43-43.29-4.61-39.26-66.06-39.26-66.06-45.98,39.66-25.22,96.68-11.7,123.05-2.8,3.93-5.51,7.92-8.15,11.97-42.95,6.68-54.94-53.66-54.94-53.66-34.14,50.19.64,99.88,20.53,121.87-1.7,4.54-3.29,9.11-4.79,13.7-39.74,17.52-66.93-37.63-66.93-37.63-5.65,16.19-5.99,30.92-3.01,44.09h107.79Z"/>
  <g id="W">
    <polygon class="cls-1" points="512 482.11 607.39 614.25 702.26 457.27 930.4 457.27 655.96 938.05 512 793.83 368.04 938.05 93.6 457.27 321.74 457.27 416.61 614.25 512 482.11"/>
    <polygon class="cls-2" points="512 744.29 375.69 880.85 153.88 492.27 301.99 492.27 414.02 677.64 512 541.91 609.98 677.64 722.01 492.27 870.12 492.27 648.31 880.85 512 744.29"/>
    <polygon class="cls-1" points="454.22 656.12 512 576.08 569.78 656.12 454.22 656.12"/>
    <polygon class="cls-1" points="334.93 773.13 378.89 850.1 440.13 788.86 334.93 773.13"/>
    <polygon class="cls-1" points="689.07 773.13 645.11 850.1 583.87 788.86 689.07 773.13"/>
  </g>
  <path id="Inner_Circle" data-name="Inner Circle" class="cls-1" d="m708.26,410.65c-36.73-70.98-110.82-119.5-196.26-119.5s-159.53,48.52-196.26,119.5h392.51Z"/>
</svg>